# xmcd CD database file
#
# Track frame offsets:
#	150
#	15045
#	31205
#	48736
#	65762
#	82057
#	100066
#	114426
#	131507
#	152044
#	164357
#	183944
#	202961
#	217610
#	232624
#	250415
#	269500
#	283291
#	301760
#	317609
#
# Disc length: 4469 seconds
#
# Revision: 0
# Processed by: cddbd v1.5.1PL2 Copyright (c) Steve Scherf et al.
# Submitted via: CDex 1.40Beta8
#
DISCID=06117314
DTITLE=Various  - TMC HP200619 
DYEAR=2006
DGENRE=Country
TTITLE0=Los Lonely Boys - Diamonds
TTITLE1=Jade - Lay Me Down 
TTITLE2=Five For Fighting - The Riddle (You and I)
TTITLE3=Nicol Sponberg - Crazy In Love 
TTITLE4=Saving Jane - Happy 
TTITLE5=Citty - Da Cookie Man 
TTITLE6=Mobb Deep F. Young Buck - Give It To Me 
TTITLE7=Sleepy Brown F. Big Boi - Margarita
TTITLE8=DJ Khaled F. Paul Wall - Holla At Me 
TTITLE9=Sawyer Brown - Keep Your Hands To Yourself
TTITLE10=Dixie Chicks - Everybody Knows
TTITLE11=Lostprophets - Rooftops (A Liberation Broadcast)
TTITLE12=She Wants Revenge - These Things 
TTITLE13=Placebo - Infra-Red
TTITLE14=Soul Asylum - Stand Up And Be Strong
TTITLE15=Diconfect F. Andrea Martin - Story Of My Life [Rmx]
TTITLE16=Bananarama - Look On The Floor [Rmx]
TTITLE17=Korn - Coming Undone [Rmx]
TTITLE18=Hyper Static Union - Praying For Sunny Days
TTITLE19=Third Day - Mountain Of God
EXTD=YEAR: 2006 ID3G: 2
EXTT0=
EXTT1=
EXTT2=
EXTT3=
EXTT4=
EXTT5=
EXTT6=
EXTT7=
EXTT8=
EXTT9=
EXTT10=
EXTT11=
EXTT12=
EXTT13=
EXTT14=
EXTT15=
EXTT16=
EXTT17=
EXTT18=
EXTT19=
PLAYORDER=
